<svg xmlns="http://www.w3.org/2000/svg" xmlns:xlink="http://www.w3.org/1999/xlink" width="500" zoomAndPan="magnify" viewBox="0 0 375 374.999991" height="500" preserveAspectRatio="xMidYMid meet" version="1.0"><defs><clipPath id="b21e69b502"><path d="M 70.265625 70.265625 L 305 70.265625 L 305 305 L 70.265625 305 Z M 70.265625 70.265625 " clip-rule="nonzero"/></clipPath></defs><rect x="-37.5" width="450" fill="#ffffff" y="-37.499999" height="449.999989" fill-opacity="1"/><rect x="-37.5" width="450" fill="#1d2a3a" y="-37.499999" height="449.999989" fill-opacity="1"/><path fill="#d3ae8b" d="M 206.589844 76.695312 C 206.589844 76.480469 206.414062 76.304688 206.199219 76.304688 C 205.984375 76.304688 205.804688 76.480469 205.804688 76.695312 C 205.804688 76.910156 205.984375 77.085938 206.199219 77.085938 C 206.414062 77.085938 206.589844 76.910156 206.589844 76.695312 Z M 202.746094 76.082031 C 202.746094 75.707031 202.441406 75.398438 202.066406 75.398438 C 201.6875 75.398438 201.382812 75.707031 201.382812 76.082031 C 201.382812 76.460938 201.6875 76.765625 202.066406 76.765625 C 202.441406 76.765625 202.746094 76.460938 202.746094 76.082031 Z M 198.789062 75.625 C 198.789062 75.136719 198.398438 74.746094 197.910156 74.746094 C 197.425781 74.746094 197.035156 75.136719 197.035156 75.625 C 197.035156 76.105469 197.425781 76.5 197.910156 76.5 C 198.398438 76.5 198.789062 76.105469 198.789062 75.625 Z M 194.738281 75.316406 C 194.738281 74.769531 194.296875 74.320312 193.746094 74.320312 C 193.195312 74.320312 192.746094 74.769531 192.746094 75.316406 C 192.746094 75.867188 193.195312 76.316406 193.746094 76.316406 C 194.296875 76.316406 194.738281 75.867188 194.738281 75.316406 Z M 190.617188 75.164062 C 190.617188 74.585938 190.148438 74.117188 189.566406 74.117188 C 188.988281 74.117188 188.519531 74.585938 188.519531 75.164062 C 188.519531 75.746094 188.988281 76.214844 189.566406 76.214844 C 190.148438 76.214844 190.617188 75.746094 190.617188 75.164062 Z M 186.4375 75.164062 C 186.4375 74.585938 185.96875 74.121094 185.390625 74.121094 C 184.8125 74.121094 184.34375 74.585938 184.34375 75.164062 C 184.34375 75.746094 184.8125 76.214844 185.390625 76.214844 C 185.96875 76.214844 186.4375 75.746094 186.4375 75.164062 Z M 182.21875 75.316406 C 182.21875 74.769531 181.773438 74.324219 181.222656 74.324219 C 180.675781 74.324219 180.226562 74.769531 180.226562 75.316406 C 180.226562 75.867188 180.675781 76.3125 181.222656 76.3125 C 181.773438 76.3125 182.21875 75.867188 182.21875 75.316406 Z M 177.929688 75.625 C 177.929688 75.140625 177.539062 74.753906 177.054688 74.753906 C 176.574219 74.753906 176.179688 75.140625 176.179688 75.625 C 176.179688 76.105469 176.574219 76.496094 177.054688 76.496094 C 177.539062 76.496094 177.929688 76.105469 177.929688 75.625 Z M 173.582031 76.085938 C 173.582031 75.710938 173.277344 75.40625 172.90625 75.40625 C 172.527344 75.40625 172.222656 75.710938 172.222656 76.085938 C 172.222656 76.460938 172.527344 76.765625 172.90625 76.765625 C 173.277344 76.765625 173.582031 76.460938 173.582031 76.085938 Z M 168.769531 77.089844 C 168.554688 77.089844 168.382812 76.914062 168.382812 76.699219 C 168.382812 76.484375 168.554688 76.3125 168.769531 76.3125 C 168.984375 76.3125 169.160156 76.484375 169.160156 76.699219 C 169.160156 76.914062 168.984375 77.089844 168.769531 77.089844 " fill-opacity="1" fill-rule="nonzero"/><path fill="#d3ae8b" d="M 148.632812 81.996094 C 148.523438 81.804688 148.285156 81.742188 148.097656 81.851562 C 147.910156 81.960938 147.84375 82.199219 147.953125 82.386719 C 148.0625 82.574219 148.300781 82.636719 148.488281 82.527344 C 148.675781 82.421875 148.742188 82.179688 148.632812 81.996094 Z M 145 83.382812 C 144.808594 83.054688 144.394531 82.945312 144.066406 83.132812 C 143.738281 83.324219 143.625 83.742188 143.8125 84.066406 C 144.003906 84.394531 144.421875 84.503906 144.75 84.316406 C 145.078125 84.128906 145.1875 83.710938 145 83.382812 Z M 141.339844 84.964844 C 141.097656 84.542969 140.5625 84.398438 140.144531 84.644531 C 139.722656 84.886719 139.578125 85.421875 139.820312 85.839844 C 140.0625 86.261719 140.601562 86.40625 141.019531 86.167969 C 141.4375 85.921875 141.585938 85.382812 141.339844 84.964844 Z M 137.683594 86.726562 C 137.40625 86.25 136.796875 86.085938 136.324219 86.359375 C 135.84375 86.636719 135.679688 87.246094 135.953125 87.722656 C 136.230469 88.195312 136.839844 88.363281 137.316406 88.085938 C 137.792969 87.8125 137.957031 87.199219 137.683594 86.726562 Z M 134.035156 88.652344 C 133.742188 88.152344 133.101562 87.980469 132.601562 88.269531 C 132.101562 88.558594 131.925781 89.203125 132.214844 89.703125 C 132.507812 90.203125 133.148438 90.375 133.652344 90.085938 C 134.152344 89.796875 134.324219 89.15625 134.035156 88.652344 Z M 130.414062 90.746094 C 130.125 90.246094 129.488281 90.070312 128.984375 90.363281 C 128.484375 90.648438 128.3125 91.289062 128.601562 91.792969 C 128.890625 92.292969 129.53125 92.464844 130.03125 92.175781 C 130.535156 91.886719 130.703125 91.246094 130.414062 90.746094 Z M 126.835938 92.988281 C 126.5625 92.511719 125.953125 92.351562 125.480469 92.625 C 125.003906 92.898438 124.84375 93.503906 125.113281 93.980469 C 125.390625 94.457031 125.996094 94.617188 126.472656 94.34375 C 126.945312 94.070312 127.109375 93.464844 126.835938 92.988281 Z M 123.277344 95.398438 C 123.035156 94.976562 122.5 94.835938 122.082031 95.078125 C 121.664062 95.316406 121.519531 95.851562 121.761719 96.273438 C 122.003906 96.691406 122.539062 96.832031 122.960938 96.589844 C 123.375 96.351562 123.515625 95.816406 123.277344 95.398438 Z M 119.742188 97.96875 C 119.558594 97.644531 119.140625 97.53125 118.8125 97.71875 C 118.488281 97.90625 118.378906 98.324219 118.5625 98.648438 C 118.753906 98.976562 119.167969 99.085938 119.496094 98.898438 C 119.820312 98.710938 119.929688 98.292969 119.742188 97.96875 Z M 116.074219 101.242188 C 115.890625 101.351562 115.652344 101.289062 115.542969 101.101562 C 115.4375 100.917969 115.5 100.679688 115.6875 100.570312 C 115.875 100.464844 116.113281 100.527344 116.222656 100.714844 C 116.328125 100.898438 116.265625 101.136719 116.074219 101.242188 " fill-opacity="1" fill-rule="nonzero"/><path fill="#d3ae8b" d="M 101.089844 115.5625 C 100.898438 115.453125 100.660156 115.519531 100.550781 115.703125 C 100.445312 115.894531 100.507812 116.132812 100.699219 116.238281 C 100.882812 116.347656 101.125 116.28125 101.230469 116.09375 C 101.339844 115.90625 101.273438 115.667969 101.089844 115.5625 Z M 98.636719 118.578125 C 98.308594 118.394531 97.894531 118.503906 97.703125 118.832031 C 97.515625 119.15625 97.625 119.578125 97.953125 119.765625 C 98.28125 119.953125 98.699219 119.839844 98.886719 119.515625 C 99.074219 119.1875 98.964844 118.769531 98.636719 118.578125 Z M 96.257812 121.777344 C 95.839844 121.535156 95.300781 121.679688 95.058594 122.097656 C 94.816406 122.519531 94.960938 123.058594 95.382812 123.296875 C 95.804688 123.539062 96.335938 123.398438 96.582031 122.976562 C 96.824219 122.558594 96.679688 122.019531 96.257812 121.777344 Z M 93.972656 125.132812 C 93.492188 124.859375 92.886719 125.023438 92.609375 125.5 C 92.335938 125.972656 92.496094 126.585938 92.972656 126.859375 C 93.449219 127.132812 94.058594 126.972656 94.335938 126.496094 C 94.609375 126.019531 94.445312 125.410156 93.972656 125.132812 Z M 91.777344 128.628906 C 91.273438 128.335938 90.632812 128.511719 90.339844 129.011719 C 90.054688 129.511719 90.226562 130.15625 90.726562 130.445312 C 91.226562 130.734375 91.871094 130.5625 92.160156 130.058594 C 92.449219 129.558594 92.277344 128.917969 91.777344 128.628906 Z M 89.683594 132.246094 C 89.183594 131.957031 88.546875 132.128906 88.253906 132.632812 C 87.96875 133.132812 88.140625 133.777344 88.640625 134.0625 C 89.140625 134.351562 89.78125 134.179688 90.070312 133.679688 C 90.359375 133.175781 90.191406 132.535156 89.683594 132.246094 Z M 87.710938 135.976562 C 87.234375 135.703125 86.625 135.867188 86.351562 136.34375 C 86.078125 136.820312 86.242188 137.425781 86.714844 137.699219 C 87.191406 137.976562 87.796875 137.8125 88.074219 137.335938 C 88.347656 136.863281 88.183594 136.253906 87.710938 135.976562 Z M 85.828125 139.847656 C 85.410156 139.605469 84.875 139.75 84.640625 140.167969 C 84.398438 140.582031 84.539062 141.117188 84.957031 141.359375 C 85.375 141.601562 85.910156 141.457031 86.152344 141.035156 C 86.394531 140.621094 86.246094 140.089844 85.828125 139.847656 Z M 84.058594 143.84375 C 83.734375 143.652344 83.3125 143.761719 83.128906 144.085938 C 82.9375 144.414062 83.050781 144.828125 83.378906 145.015625 C 83.703125 145.203125 84.117188 145.09375 84.304688 144.765625 C 84.492188 144.441406 84.382812 144.027344 84.058594 143.84375 Z M 82.519531 148.507812 C 82.414062 148.699219 82.175781 148.757812 81.988281 148.652344 C 81.800781 148.546875 81.738281 148.308594 81.84375 148.121094 C 81.953125 147.933594 82.191406 147.871094 82.378906 147.976562 C 82.5625 148.082031 82.628906 148.324219 82.519531 148.507812 " fill-opacity="1" fill-rule="nonzero"/><path fill="#d3ae8b" d="M 76.695312 168.402344 C 76.480469 168.402344 76.304688 168.578125 76.304688 168.792969 C 76.304688 169.011719 76.480469 169.1875 76.695312 169.1875 C 76.914062 169.191406 77.089844 169.011719 77.089844 168.792969 C 77.089844 168.578125 76.914062 168.402344 76.695312 168.402344 Z M 76.082031 172.246094 C 75.707031 172.246094 75.402344 172.550781 75.402344 172.925781 C 75.402344 173.304688 75.707031 173.613281 76.085938 173.609375 C 76.460938 173.609375 76.765625 173.304688 76.765625 172.925781 C 76.765625 172.550781 76.464844 172.246094 76.082031 172.246094 Z M 75.625 176.203125 C 75.140625 176.203125 74.746094 176.59375 74.746094 177.078125 C 74.746094 177.566406 75.140625 177.957031 75.625 177.957031 C 76.109375 177.957031 76.503906 177.566406 76.503906 177.082031 C 76.5 176.59375 76.109375 176.203125 75.625 176.203125 Z M 75.320312 180.253906 C 74.769531 180.253906 74.324219 180.699219 74.324219 181.25 C 74.324219 181.800781 74.769531 182.246094 75.320312 182.246094 C 75.867188 182.246094 76.316406 181.800781 76.316406 181.25 C 76.316406 180.699219 75.867188 180.253906 75.320312 180.253906 Z M 75.167969 184.375 C 74.585938 184.375 74.117188 184.84375 74.117188 185.421875 C 74.117188 186.003906 74.589844 186.472656 75.167969 186.472656 C 75.742188 186.472656 76.214844 186.003906 76.214844 185.421875 C 76.214844 184.847656 75.746094 184.375 75.167969 184.375 Z M 75.164062 188.554688 C 74.589844 188.554688 74.121094 189.023438 74.121094 189.601562 C 74.121094 190.175781 74.589844 190.648438 75.167969 190.648438 C 75.746094 190.652344 76.214844 190.179688 76.214844 189.601562 C 76.214844 189.023438 75.746094 188.554688 75.164062 188.554688 Z M 75.320312 192.773438 C 74.773438 192.773438 74.324219 193.21875 74.324219 193.769531 C 74.324219 194.316406 74.773438 194.757812 75.320312 194.765625 C 75.871094 194.757812 76.3125 194.316406 76.3125 193.769531 C 76.3125 193.222656 75.871094 192.773438 75.320312 192.773438 Z M 75.625 197.058594 C 75.144531 197.058594 74.75 197.457031 74.757812 197.933594 C 74.757812 198.417969 75.144531 198.8125 75.625 198.8125 C 76.109375 198.808594 76.5 198.417969 76.5 197.933594 C 76.5 197.453125 76.109375 197.0625 75.625 197.058594 Z M 76.089844 201.40625 C 75.714844 201.40625 75.40625 201.714844 75.40625 202.085938 C 75.40625 202.464844 75.714844 202.773438 76.089844 202.773438 C 76.464844 202.765625 76.765625 202.464844 76.765625 202.085938 C 76.765625 201.710938 76.464844 201.40625 76.089844 201.40625 Z M 77.089844 206.222656 C 77.09375 206.433594 76.917969 206.609375 76.703125 206.609375 C 76.488281 206.609375 76.3125 206.433594 76.308594 206.222656 C 76.3125 206.007812 76.484375 205.832031 76.703125 205.828125 C 76.917969 205.828125 77.09375 206.007812 77.089844 206.222656 " fill-opacity="1" fill-rule="nonzero"/><path fill="#d3ae8b" d="M 81.996094 226.359375 C 81.808594 226.46875 81.742188 226.707031 81.851562 226.894531 C 81.960938 227.085938 82.199219 227.148438 82.386719 227.035156 C 82.578125 226.929688 82.640625 226.691406 82.53125 226.503906 C 82.421875 226.316406 82.183594 226.25 81.996094 226.359375 Z M 83.382812 229.996094 C 83.054688 230.183594 82.945312 230.597656 83.136719 230.925781 C 83.324219 231.25 83.742188 231.367188 84.070312 231.175781 C 84.394531 230.988281 84.507812 230.566406 84.316406 230.242188 C 84.132812 229.917969 83.714844 229.800781 83.382812 229.996094 Z M 84.96875 233.648438 C 84.546875 233.890625 84.402344 234.433594 84.644531 234.847656 C 84.886719 235.269531 85.421875 235.414062 85.84375 235.171875 C 86.265625 234.925781 86.410156 234.390625 86.167969 233.972656 C 85.921875 233.550781 85.386719 233.40625 84.96875 233.648438 Z M 86.726562 237.308594 C 86.253906 237.585938 86.085938 238.195312 86.363281 238.667969 C 86.636719 239.144531 87.246094 239.316406 87.722656 239.035156 C 88.199219 238.765625 88.363281 238.152344 88.085938 237.675781 C 87.8125 237.195312 87.203125 237.035156 86.726562 237.308594 Z M 88.660156 240.957031 C 88.152344 241.246094 87.980469 241.890625 88.269531 242.390625 C 88.5625 242.890625 89.203125 243.0625 89.707031 242.773438 C 90.203125 242.484375 90.378906 241.839844 90.089844 241.339844 C 89.796875 240.84375 89.15625 240.667969 88.660156 240.957031 Z M 90.746094 244.578125 C 90.246094 244.867188 90.074219 245.503906 90.363281 246.007812 C 90.652344 246.503906 91.292969 246.679688 91.792969 246.390625 C 92.292969 246.105469 92.464844 245.460938 92.175781 244.960938 C 91.890625 244.457031 91.246094 244.285156 90.746094 244.578125 Z M 92.992188 248.15625 C 92.511719 248.429688 92.351562 249.039062 92.625 249.511719 C 92.898438 249.992188 93.507812 250.152344 93.984375 249.875 C 94.457031 249.601562 94.621094 248.992188 94.347656 248.519531 C 94.074219 248.042969 93.464844 247.878906 92.992188 248.15625 Z M 95.398438 251.714844 C 94.980469 251.957031 94.835938 252.496094 95.082031 252.90625 C 95.324219 253.328125 95.855469 253.46875 96.273438 253.230469 C 96.691406 252.988281 96.832031 252.457031 96.589844 252.035156 C 96.351562 251.617188 95.816406 251.472656 95.398438 251.714844 Z M 97.972656 255.246094 C 97.648438 255.4375 97.53125 255.855469 97.71875 256.179688 C 97.910156 256.503906 98.328125 256.613281 98.652344 256.425781 C 98.976562 256.242188 99.085938 255.824219 98.898438 255.5 C 98.707031 255.171875 98.296875 255.0625 97.972656 255.246094 Z M 101.242188 258.917969 C 101.355469 259.097656 101.289062 259.339844 101.105469 259.445312 C 100.917969 259.550781 100.679688 259.488281 100.570312 259.308594 C 100.464844 259.121094 100.527344 258.882812 100.714844 258.773438 C 100.898438 258.664062 101.140625 258.726562 101.242188 258.917969 " fill-opacity="1" fill-rule="nonzero"/><path fill="#d3ae8b" d="M 115.5625 273.902344 C 115.453125 274.09375 115.515625 274.332031 115.707031 274.441406 C 115.894531 274.546875 116.132812 274.480469 116.242188 274.296875 C 116.351562 274.109375 116.285156 273.867188 116.097656 273.757812 C 115.914062 273.652344 115.671875 273.714844 115.5625 273.902344 Z M 118.582031 276.355469 C 118.390625 276.683594 118.507812 277.097656 118.832031 277.289062 C 119.160156 277.476562 119.578125 277.367188 119.765625 277.039062 C 119.957031 276.710938 119.84375 276.292969 119.511719 276.109375 C 119.191406 275.917969 118.769531 276.023438 118.582031 276.355469 Z M 121.78125 278.730469 C 121.539062 279.152344 121.679688 279.691406 122.101562 279.929688 C 122.523438 280.171875 123.058594 280.03125 123.300781 279.613281 C 123.542969 279.191406 123.402344 278.652344 122.984375 278.410156 C 122.558594 278.167969 122.023438 278.308594 121.78125 278.730469 Z M 125.136719 281.019531 C 124.859375 281.492188 125.023438 282.109375 125.5 282.378906 C 125.976562 282.65625 126.585938 282.496094 126.859375 282.015625 C 127.136719 281.542969 126.972656 280.933594 126.496094 280.65625 C 126.019531 280.382812 125.40625 280.546875 125.136719 281.019531 Z M 128.632812 283.210938 C 128.339844 283.71875 128.511719 284.355469 129.011719 284.652344 C 129.519531 284.9375 130.15625 284.765625 130.445312 284.261719 C 130.738281 283.765625 130.566406 283.121094 130.0625 282.828125 C 129.5625 282.542969 128.917969 282.714844 128.632812 283.210938 Z M 132.25 285.308594 C 131.960938 285.808594 132.132812 286.449219 132.632812 286.738281 C 133.132812 287.019531 133.773438 286.851562 134.0625 286.351562 C 134.351562 285.855469 134.179688 285.214844 133.679688 284.921875 C 133.179688 284.628906 132.542969 284.804688 132.25 285.308594 Z M 135.980469 287.28125 C 135.707031 287.757812 135.867188 288.367188 136.34375 288.640625 C 136.820312 288.917969 137.425781 288.75 137.703125 288.277344 C 137.976562 287.800781 137.8125 287.191406 137.339844 286.917969 C 136.863281 286.644531 136.253906 286.808594 135.980469 287.28125 Z M 139.847656 289.164062 C 139.605469 289.582031 139.75 290.113281 140.167969 290.351562 C 140.585938 290.589844 141.121094 290.453125 141.363281 290.035156 C 141.605469 289.617188 141.457031 289.085938 141.039062 288.839844 C 140.621094 288.601562 140.089844 288.742188 139.847656 289.164062 Z M 143.84375 290.933594 C 143.65625 291.257812 143.765625 291.679688 144.089844 291.867188 C 144.417969 292.054688 144.835938 291.9375 145.023438 291.613281 C 145.207031 291.289062 145.097656 290.875 144.769531 290.6875 C 144.441406 290.5 144.03125 290.605469 143.84375 290.933594 Z M 148.511719 292.472656 C 148.699219 292.582031 148.761719 292.816406 148.65625 293 C 148.546875 293.1875 148.308594 293.257812 148.121094 293.148438 C 147.9375 293.035156 147.871094 292.800781 147.980469 292.613281 C 148.085938 292.425781 148.324219 292.363281 148.511719 292.472656 " fill-opacity="1" fill-rule="nonzero"/><path fill="#d3ae8b" d="M 168.402344 298.296875 C 168.402344 298.511719 168.578125 298.6875 168.796875 298.6875 C 169.011719 298.6875 169.1875 298.511719 169.1875 298.296875 C 169.191406 298.078125 169.011719 297.902344 168.796875 297.898438 C 168.582031 297.898438 168.402344 298.078125 168.402344 298.296875 Z M 172.246094 298.910156 C 172.246094 299.285156 172.554688 299.589844 172.929688 299.59375 C 173.308594 299.589844 173.617188 299.285156 173.613281 298.910156 C 173.613281 298.53125 173.308594 298.222656 172.929688 298.222656 C 172.554688 298.222656 172.246094 298.527344 172.246094 298.910156 Z M 176.203125 299.367188 C 176.203125 299.851562 176.597656 300.246094 177.078125 300.246094 C 177.566406 300.246094 177.960938 299.855469 177.957031 299.367188 C 177.960938 298.882812 177.566406 298.488281 177.082031 298.484375 C 176.597656 298.488281 176.203125 298.882812 176.203125 299.367188 Z M 180.253906 299.671875 C 180.253906 300.222656 180.699219 300.664062 181.25 300.664062 C 181.800781 300.664062 182.246094 300.226562 182.246094 299.671875 C 182.246094 299.125 181.800781 298.675781 181.25 298.675781 C 180.699219 298.675781 180.253906 299.125 180.253906 299.671875 Z M 184.378906 299.824219 C 184.378906 300.40625 184.847656 300.871094 185.425781 300.875 C 186.003906 300.871094 186.472656 300.402344 186.472656 299.824219 C 186.472656 299.246094 186.003906 298.773438 185.425781 298.773438 C 184.847656 298.78125 184.378906 299.246094 184.378906 299.824219 Z M 188.558594 299.824219 C 188.558594 300.402344 189.023438 300.871094 189.605469 300.875 C 190.183594 300.871094 190.652344 300.402344 190.648438 299.824219 C 190.652344 299.246094 190.183594 298.78125 189.601562 298.773438 C 189.023438 298.773438 188.558594 299.242188 188.558594 299.824219 Z M 192.777344 299.671875 C 192.773438 300.222656 193.222656 300.664062 193.769531 300.664062 C 194.320312 300.664062 194.765625 300.222656 194.765625 299.671875 C 194.765625 299.121094 194.320312 298.675781 193.769531 298.679688 C 193.226562 298.675781 192.773438 299.121094 192.777344 299.671875 Z M 197.0625 299.367188 C 197.0625 299.847656 197.457031 300.242188 197.9375 300.238281 C 198.421875 300.234375 198.8125 299.84375 198.8125 299.367188 C 198.8125 298.882812 198.425781 298.492188 197.9375 298.492188 C 197.453125 298.492188 197.066406 298.882812 197.0625 299.367188 Z M 201.410156 298.902344 C 201.410156 299.277344 201.714844 299.589844 202.089844 299.589844 C 202.464844 299.585938 202.773438 299.273438 202.773438 298.902344 C 202.773438 298.53125 202.464844 298.222656 202.085938 298.222656 C 201.714844 298.222656 201.410156 298.527344 201.410156 298.902344 Z M 206.226562 297.902344 C 206.4375 297.898438 206.613281 298.070312 206.613281 298.289062 C 206.613281 298.503906 206.4375 298.675781 206.226562 298.679688 C 206.007812 298.675781 205.832031 298.503906 205.832031 298.289062 C 205.832031 298.074219 206.007812 297.898438 206.226562 297.902344 " fill-opacity="1" fill-rule="nonzero"/><path fill="#d3ae8b" d="M 226.363281 292.996094 C 226.46875 293.183594 226.710938 293.25 226.898438 293.140625 C 227.085938 293.03125 227.148438 292.792969 227.042969 292.605469 C 226.933594 292.414062 226.695312 292.351562 226.507812 292.460938 C 226.316406 292.570312 226.253906 292.808594 226.363281 292.996094 Z M 229.996094 291.609375 C 230.1875 291.9375 230.601562 292.046875 230.929688 291.855469 C 231.257812 291.667969 231.371094 291.25 231.179688 290.921875 C 230.992188 290.59375 230.574219 290.484375 230.246094 290.671875 C 229.917969 290.859375 229.804688 291.277344 229.996094 291.609375 Z M 233.65625 290.023438 C 233.894531 290.445312 234.433594 290.589844 234.851562 290.347656 C 235.273438 290.105469 235.417969 289.570312 235.171875 289.148438 C 234.929688 288.726562 234.394531 288.582031 233.972656 288.820312 C 233.558594 289.066406 233.410156 289.609375 233.65625 290.023438 Z M 237.3125 288.265625 C 237.585938 288.738281 238.195312 288.902344 238.671875 288.628906 C 239.148438 288.355469 239.316406 287.746094 239.039062 287.269531 C 238.765625 286.789062 238.152344 286.628906 237.675781 286.902344 C 237.203125 287.179688 237.035156 287.792969 237.3125 288.265625 Z M 240.960938 286.332031 C 241.253906 286.835938 241.890625 287.011719 242.394531 286.71875 C 242.894531 286.429688 243.066406 285.789062 242.777344 285.289062 C 242.488281 284.789062 241.847656 284.613281 241.34375 284.902344 C 240.84375 285.195312 240.675781 285.835938 240.960938 286.332031 Z M 244.582031 284.246094 C 244.871094 284.746094 245.511719 284.917969 246.011719 284.628906 C 246.511719 284.339844 246.683594 283.699219 246.390625 283.199219 C 246.105469 282.699219 245.464844 282.527344 244.960938 282.816406 C 244.460938 283.101562 244.289062 283.742188 244.582031 284.246094 Z M 248.15625 282.003906 C 248.429688 282.476562 249.042969 282.640625 249.515625 282.367188 C 249.992188 282.089844 250.152344 281.484375 249.882812 281.007812 C 249.605469 280.53125 248.996094 280.371094 248.523438 280.644531 C 248.050781 280.917969 247.882812 281.53125 248.15625 282.003906 Z M 251.714844 279.597656 C 251.957031 280.011719 252.496094 280.15625 252.910156 279.910156 C 253.328125 279.671875 253.472656 279.136719 253.230469 278.71875 C 252.992188 278.300781 252.457031 278.160156 252.035156 278.402344 C 251.621094 278.640625 251.480469 279.175781 251.714844 279.597656 Z M 255.25 277.019531 C 255.441406 277.34375 255.859375 277.460938 256.179688 277.273438 C 256.507812 277.082031 256.617188 276.664062 256.429688 276.335938 C 256.242188 276.015625 255.828125 275.902344 255.5 276.09375 C 255.175781 276.28125 255.066406 276.695312 255.25 277.019531 Z M 258.921875 273.746094 C 259.101562 273.636719 259.339844 273.703125 259.449219 273.886719 C 259.554688 274.074219 259.492188 274.3125 259.308594 274.417969 C 259.121094 274.523438 258.882812 274.464844 258.773438 274.277344 C 258.667969 274.09375 258.730469 273.851562 258.921875 273.746094 " fill-opacity="1" fill-rule="nonzero"/><path fill="#d3ae8b" d="M 273.90625 259.429688 C 274.09375 259.539062 274.335938 259.472656 274.441406 259.285156 C 274.550781 259.097656 274.484375 258.859375 274.296875 258.75 C 274.113281 258.640625 273.871094 258.707031 273.765625 258.894531 C 273.652344 259.078125 273.71875 259.320312 273.90625 259.429688 Z M 276.359375 256.410156 C 276.6875 256.597656 277.101562 256.484375 277.292969 256.15625 C 277.480469 255.832031 277.371094 255.410156 277.042969 255.222656 C 276.714844 255.035156 276.296875 255.148438 276.109375 255.476562 C 275.917969 255.800781 276.027344 256.21875 276.359375 256.410156 Z M 278.738281 253.210938 C 279.15625 253.449219 279.691406 253.308594 279.929688 252.886719 C 280.175781 252.46875 280.035156 251.9375 279.613281 251.691406 C 279.191406 251.449219 278.652344 251.589844 278.410156 252.011719 C 278.171875 252.433594 278.316406 252.96875 278.738281 253.210938 Z M 281.023438 249.859375 C 281.496094 250.132812 282.109375 249.96875 282.386719 249.492188 C 282.660156 249.015625 282.5 248.40625 282.019531 248.132812 C 281.546875 247.855469 280.933594 248.019531 280.660156 248.496094 C 280.382812 248.972656 280.546875 249.585938 281.023438 249.859375 Z M 283.21875 246.359375 C 283.722656 246.652344 284.359375 246.480469 284.652344 245.976562 C 284.941406 245.476562 284.769531 244.832031 284.269531 244.542969 C 283.769531 244.257812 283.125 244.425781 282.832031 244.929688 C 282.546875 245.429688 282.722656 246.070312 283.21875 246.359375 Z M 285.308594 242.742188 C 285.808594 243.027344 286.449219 242.859375 286.738281 242.359375 C 287.027344 241.859375 286.855469 241.214844 286.355469 240.929688 C 285.855469 240.636719 285.214844 240.8125 284.921875 241.316406 C 284.632812 241.808594 284.804688 242.453125 285.308594 242.742188 Z M 287.285156 239.007812 C 287.761719 239.285156 288.367188 239.121094 288.644531 238.644531 C 288.917969 238.171875 288.753906 237.566406 288.28125 237.285156 C 287.800781 237.015625 287.195312 237.179688 286.921875 237.65625 C 286.652344 238.128906 286.808594 238.738281 287.285156 239.007812 Z M 289.160156 235.148438 C 289.582031 235.386719 290.121094 235.242188 290.355469 234.820312 C 290.597656 234.402344 290.453125 233.871094 290.035156 233.628906 C 289.621094 233.390625 289.085938 233.535156 288.84375 233.953125 C 288.601562 234.367188 288.746094 234.898438 289.160156 235.148438 Z M 290.9375 231.148438 C 291.261719 231.332031 291.683594 231.222656 291.867188 230.90625 C 292.054688 230.574219 291.941406 230.160156 291.617188 229.96875 C 291.289062 229.785156 290.875 229.894531 290.6875 230.226562 C 290.503906 230.550781 290.613281 230.960938 290.9375 231.148438 Z M 292.476562 226.480469 C 292.578125 226.292969 292.816406 226.226562 293.007812 226.332031 C 293.1875 226.449219 293.253906 226.683594 293.152344 226.867188 C 293.042969 227.054688 292.804688 227.121094 292.617188 227.011719 C 292.429688 226.902344 292.367188 226.664062 292.476562 226.480469 " fill-opacity="1" fill-rule="nonzero"/><path fill="#d3ae8b" d="M 298.296875 206.589844 C 298.511719 206.589844 298.6875 206.410156 298.6875 206.195312 C 298.6875 205.980469 298.515625 205.800781 298.296875 205.800781 C 298.082031 205.796875 297.90625 205.980469 297.90625 206.195312 C 297.90625 206.410156 298.082031 206.589844 298.296875 206.589844 Z M 298.914062 202.746094 C 299.292969 202.742188 299.589844 202.441406 299.59375 202.058594 C 299.59375 201.683594 299.289062 201.375 298.910156 201.378906 C 298.535156 201.378906 298.226562 201.6875 298.230469 202.066406 C 298.222656 202.4375 298.53125 202.746094 298.914062 202.746094 Z M 299.371094 198.785156 C 299.855469 198.785156 300.246094 198.394531 300.246094 197.910156 C 300.246094 197.425781 299.855469 197.03125 299.367188 197.035156 C 298.882812 197.03125 298.492188 197.425781 298.492188 197.910156 C 298.492188 198.394531 298.886719 198.785156 299.371094 198.785156 Z M 299.675781 194.738281 C 300.222656 194.738281 300.671875 194.296875 300.671875 193.742188 C 300.671875 193.195312 300.226562 192.742188 299.675781 192.742188 C 299.125 192.742188 298.675781 193.195312 298.679688 193.742188 C 298.679688 194.292969 299.125 194.738281 299.675781 194.738281 Z M 299.828125 190.613281 C 300.410156 190.613281 300.875 190.144531 300.878906 189.566406 C 300.875 188.988281 300.40625 188.515625 299.828125 188.515625 C 299.253906 188.515625 298.78125 188.988281 298.777344 189.566406 C 298.78125 190.144531 299.253906 190.613281 299.828125 190.613281 Z M 299.828125 186.433594 C 300.40625 186.433594 300.875 185.964844 300.875 185.386719 C 300.871094 184.8125 300.40625 184.339844 299.828125 184.34375 C 299.25 184.339844 298.78125 184.8125 298.777344 185.390625 C 298.777344 185.964844 299.25 186.4375 299.828125 186.433594 Z M 299.675781 182.214844 C 300.222656 182.21875 300.664062 181.769531 300.667969 181.222656 C 300.664062 180.671875 300.226562 180.226562 299.675781 180.226562 C 299.125 180.226562 298.679688 180.671875 298.679688 181.222656 C 298.679688 181.765625 299.125 182.21875 299.675781 182.214844 Z M 299.367188 177.929688 C 299.851562 177.929688 300.242188 177.535156 300.238281 177.050781 C 300.238281 176.566406 299.847656 176.179688 299.367188 176.179688 C 298.886719 176.179688 298.496094 176.570312 298.496094 177.054688 C 298.496094 177.539062 298.886719 177.925781 299.367188 177.929688 Z M 298.90625 173.582031 C 299.28125 173.582031 299.589844 173.277344 299.589844 172.902344 C 299.585938 172.527344 299.28125 172.21875 298.90625 172.21875 C 298.53125 172.222656 298.226562 172.527344 298.230469 172.90625 C 298.230469 173.28125 298.53125 173.582031 298.90625 173.582031 Z M 297.90625 168.765625 C 297.902344 168.554688 298.074219 168.378906 298.289062 168.375 C 298.503906 168.378906 298.679688 168.554688 298.683594 168.765625 C 298.679688 168.984375 298.507812 169.160156 298.292969 169.160156 C 298.074219 169.160156 297.902344 168.984375 297.90625 168.765625 " fill-opacity="1" fill-rule="nonzero"/><path fill="#d3ae8b" d="M 293 148.632812 C 293.1875 148.523438 293.253906 148.285156 293.144531 148.097656 C 293.035156 147.910156 292.796875 147.839844 292.605469 147.949219 C 292.417969 148.058594 292.355469 148.300781 292.464844 148.484375 C 292.570312 148.671875 292.8125 148.738281 293 148.632812 Z M 291.613281 144.996094 C 291.9375 144.804688 292.042969 144.394531 291.859375 144.0625 C 291.667969 143.734375 291.253906 143.621094 290.925781 143.8125 C 290.597656 144 290.488281 144.417969 290.679688 144.746094 C 290.863281 145.074219 291.28125 145.1875 291.613281 144.996094 Z M 290.027344 141.335938 C 290.445312 141.097656 290.589844 140.558594 290.347656 140.140625 C 290.105469 139.722656 289.574219 139.574219 289.152344 139.820312 C 288.730469 140.0625 288.585938 140.597656 288.824219 141.015625 C 289.070312 141.4375 289.609375 141.582031 290.027344 141.335938 Z M 288.265625 137.679688 C 288.742188 137.40625 288.910156 136.796875 288.632812 136.320312 C 288.359375 135.84375 287.75 135.679688 287.273438 135.953125 C 286.796875 136.222656 286.628906 136.839844 286.90625 137.316406 C 287.183594 137.792969 287.792969 137.957031 288.265625 137.679688 Z M 286.335938 134.027344 C 286.839844 133.742188 287.011719 133.105469 286.726562 132.597656 C 286.433594 132.09375 285.789062 131.925781 285.289062 132.214844 C 284.789062 132.503906 284.617188 133.144531 284.90625 133.648438 C 285.195312 134.152344 285.839844 134.316406 286.335938 134.027344 Z M 284.25 130.410156 C 284.75 130.121094 284.921875 129.480469 284.632812 128.984375 C 284.339844 128.480469 283.703125 128.308594 283.199219 128.601562 C 282.699219 128.886719 282.53125 129.53125 282.816406 130.03125 C 283.105469 130.53125 283.746094 130.699219 284.25 130.410156 Z M 282.003906 126.835938 C 282.484375 126.5625 282.640625 125.953125 282.371094 125.476562 C 282.09375 125 281.488281 124.835938 281.007812 125.109375 C 280.535156 125.386719 280.375 125.996094 280.648438 126.46875 C 280.921875 126.941406 281.53125 127.109375 282.003906 126.835938 Z M 279.597656 123.277344 C 280.015625 123.035156 280.160156 122.5 279.914062 122.082031 C 279.671875 121.664062 279.136719 121.519531 278.722656 121.761719 C 278.304688 122 278.164062 122.535156 278.402344 122.953125 C 278.644531 123.371094 279.179688 123.511719 279.597656 123.277344 Z M 277.023438 119.742188 C 277.347656 119.550781 277.464844 119.136719 277.277344 118.8125 C 277.085938 118.488281 276.667969 118.371094 276.34375 118.5625 C 276.019531 118.753906 275.90625 119.164062 276.101562 119.492188 C 276.285156 119.820312 276.699219 119.925781 277.023438 119.742188 Z M 273.75 116.074219 C 273.636719 115.890625 273.703125 115.652344 273.886719 115.542969 C 274.078125 115.4375 274.3125 115.503906 274.425781 115.683594 C 274.53125 115.871094 274.46875 116.113281 274.277344 116.21875 C 274.09375 116.328125 273.855469 116.261719 273.75 116.074219 " fill-opacity="1" fill-rule="nonzero"/><path fill="#d3ae8b" d="M 259.433594 101.082031 C 259.542969 100.898438 259.476562 100.660156 259.289062 100.550781 C 259.101562 100.445312 258.863281 100.507812 258.753906 100.695312 C 258.640625 100.882812 258.707031 101.121094 258.894531 101.226562 C 259.082031 101.335938 259.324219 101.273438 259.433594 101.082031 Z M 256.414062 98.632812 C 256.601562 98.304688 256.484375 97.894531 256.164062 97.699219 C 255.832031 97.507812 255.417969 97.621094 255.226562 97.949219 C 255.039062 98.277344 255.152344 98.695312 255.480469 98.882812 C 255.804688 99.074219 256.222656 98.964844 256.414062 98.632812 Z M 253.214844 96.253906 C 253.457031 95.835938 253.3125 95.300781 252.894531 95.058594 C 252.472656 94.820312 251.9375 94.957031 251.695312 95.378906 C 251.449219 95.800781 251.59375 96.335938 252.011719 96.582031 C 252.433594 96.820312 252.972656 96.675781 253.214844 96.253906 Z M 249.859375 93.96875 C 250.132812 93.496094 249.972656 92.882812 249.496094 92.605469 C 249.019531 92.332031 248.410156 92.496094 248.132812 92.972656 C 247.859375 93.441406 248.019531 94.058594 248.5 94.332031 C 248.976562 94.609375 249.585938 94.445312 249.859375 93.96875 Z M 246.359375 91.773438 C 246.652344 91.269531 246.484375 90.632812 245.984375 90.339844 C 245.476562 90.050781 244.835938 90.222656 244.546875 90.722656 C 244.257812 91.222656 244.429688 91.867188 244.933594 92.15625 C 245.433594 92.445312 246.074219 92.269531 246.359375 91.773438 Z M 242.742188 89.683594 C 243.03125 89.183594 242.863281 88.539062 242.359375 88.253906 C 241.859375 87.964844 241.21875 88.136719 240.929688 88.636719 C 240.644531 89.136719 240.816406 89.78125 241.3125 90.070312 C 241.8125 90.359375 242.453125 90.1875 242.742188 89.683594 Z M 239.011719 87.707031 C 239.289062 87.234375 239.125 86.625 238.648438 86.347656 C 238.171875 86.074219 237.566406 86.238281 237.289062 86.714844 C 237.015625 87.191406 237.179688 87.796875 237.65625 88.070312 C 238.128906 88.34375 238.738281 88.183594 239.011719 87.707031 Z M 235.148438 85.832031 C 235.390625 85.410156 235.246094 84.875 234.824219 84.636719 C 234.40625 84.394531 233.875 84.539062 233.632812 84.953125 C 233.390625 85.371094 233.535156 85.90625 233.953125 86.148438 C 234.375 86.390625 234.90625 86.246094 235.148438 85.832031 Z M 231.152344 84.054688 C 231.339844 83.730469 231.230469 83.3125 230.90625 83.125 C 230.578125 82.9375 230.160156 83.046875 229.972656 83.375 C 229.785156 83.703125 229.898438 84.117188 230.226562 84.300781 C 230.550781 84.492188 230.964844 84.378906 231.152344 84.054688 Z M 226.480469 82.515625 C 226.296875 82.414062 226.230469 82.171875 226.339844 81.984375 C 226.449219 81.800781 226.683594 81.738281 226.871094 81.839844 C 227.058594 81.949219 227.121094 82.191406 227.011719 82.375 C 226.90625 82.566406 226.667969 82.625 226.480469 82.515625 " fill-opacity="1" fill-rule="nonzero"/><path fill="#d3ae8b" d="M 183.257812 92.734375 C 183.257812 92.734375 186.574219 92.1875 186.765625 92 C 186.953125 91.8125 187.496094 88.496094 187.496094 88.496094 C 187.496094 88.496094 188.046875 91.8125 188.234375 92 C 188.421875 92.1875 191.734375 92.734375 191.734375 92.734375 C 191.734375 92.734375 188.421875 93.28125 188.234375 93.46875 C 188.046875 93.660156 187.496094 96.976562 187.496094 96.976562 C 187.496094 96.976562 186.953125 93.660156 186.765625 93.46875 C 186.574219 93.28125 183.257812 92.734375 183.257812 92.734375 " fill-opacity="1" fill-rule="nonzero"/><path fill="#d3ae8b" d="M 136.445312 107.550781 C 136.445312 107.550781 139.046875 105.417969 139.117188 105.160156 C 139.183594 104.902344 137.996094 101.761719 137.996094 101.761719 C 137.996094 101.761719 140.128906 104.355469 140.386719 104.425781 C 140.648438 104.492188 143.789062 103.3125 143.789062 103.3125 C 143.789062 103.3125 141.191406 105.441406 141.121094 105.699219 C 141.054688 105.957031 142.238281 109.101562 142.238281 109.101562 C 142.238281 109.101562 140.109375 106.5 139.847656 106.433594 C 139.59375 106.359375 136.445312 107.550781 136.445312 107.550781 " fill-opacity="1" fill-rule="nonzero"/><path fill="#d3ae8b" d="M 103.3125 143.785156 C 103.3125 143.785156 104.5 140.636719 104.429688 140.382812 C 104.363281 140.125 101.761719 137.996094 101.761719 137.996094 C 101.761719 137.996094 104.90625 139.179688 105.164062 139.113281 C 105.425781 139.039062 107.554688 136.445312 107.554688 136.445312 C 107.554688 136.445312 106.367188 139.585938 106.4375 139.847656 C 106.503906 140.101562 109.105469 142.230469 109.105469 142.230469 C 109.105469 142.230469 105.960938 141.046875 105.703125 141.117188 C 105.445312 141.183594 103.3125 143.785156 103.3125 143.785156 " fill-opacity="1" fill-rule="nonzero"/><path fill="#d3ae8b" d="M 92.734375 191.730469 C 92.734375 191.730469 92.191406 188.414062 92.003906 188.226562 C 91.816406 188.035156 88.496094 187.496094 88.496094 187.496094 C 88.496094 187.496094 91.8125 186.945312 92.003906 186.757812 C 92.191406 186.570312 92.738281 183.253906 92.738281 183.253906 C 92.738281 183.253906 93.28125 186.570312 93.472656 186.757812 C 93.660156 186.945312 96.976562 187.496094 96.976562 187.496094 C 96.976562 187.496094 93.660156 188.042969 93.472656 188.226562 C 93.28125 188.414062 92.734375 191.730469 92.734375 191.730469 " fill-opacity="1" fill-rule="nonzero"/><path fill="#d3ae8b" d="M 107.554688 238.546875 C 107.554688 238.546875 105.421875 235.941406 105.160156 235.875 C 104.90625 235.804688 101.761719 236.996094 101.761719 236.996094 C 101.761719 236.996094 104.359375 234.859375 104.429688 234.605469 C 104.496094 234.34375 103.3125 231.199219 103.3125 231.199219 C 103.3125 231.199219 105.441406 233.800781 105.703125 233.871094 C 105.957031 233.9375 109.105469 232.75 109.105469 232.75 C 109.105469 232.75 106.507812 234.882812 106.4375 235.140625 C 106.363281 235.394531 107.554688 238.546875 107.554688 238.546875 " fill-opacity="1" fill-rule="nonzero"/><path fill="#d3ae8b" d="M 143.792969 271.679688 C 143.792969 271.679688 140.636719 270.492188 140.382812 270.5625 C 140.125 270.628906 137.996094 273.230469 137.996094 273.230469 C 137.996094 273.230469 139.179688 270.082031 139.113281 269.828125 C 139.042969 269.566406 136.445312 267.4375 136.445312 267.4375 C 136.445312 267.4375 139.589844 268.621094 139.847656 268.554688 C 140.101562 268.484375 142.238281 265.882812 142.238281 265.882812 C 142.238281 265.882812 141.054688 269.027344 141.117188 269.285156 C 141.183594 269.546875 143.792969 271.679688 143.792969 271.679688 " fill-opacity="1" fill-rule="nonzero"/><path fill="#d3ae8b" d="M 191.738281 282.253906 C 191.738281 282.253906 188.414062 282.800781 188.226562 282.988281 C 188.035156 283.171875 187.496094 286.496094 187.496094 286.496094 C 187.496094 286.496094 186.945312 283.175781 186.757812 282.988281 C 186.570312 282.800781 183.253906 282.253906 183.253906 282.253906 C 183.253906 282.253906 186.570312 281.707031 186.761719 281.519531 C 186.949219 281.332031 187.496094 278.011719 187.496094 278.011719 C 187.496094 278.011719 188.042969 281.328125 188.226562 281.519531 C 188.417969 281.707031 191.738281 282.253906 191.738281 282.253906 " fill-opacity="1" fill-rule="nonzero"/><path fill="#d3ae8b" d="M 238.546875 267.4375 C 238.546875 267.4375 235.941406 269.570312 235.875 269.828125 C 235.804688 270.085938 237 273.230469 237 273.230469 C 237 273.230469 234.859375 270.632812 234.605469 270.5625 C 234.34375 270.496094 231.203125 271.683594 231.203125 271.683594 C 231.203125 271.683594 233.804688 269.546875 233.871094 269.285156 C 233.941406 269.03125 232.753906 265.882812 232.753906 265.882812 C 232.753906 265.882812 234.886719 268.484375 235.140625 268.558594 C 235.398438 268.625 238.546875 267.4375 238.546875 267.4375 " fill-opacity="1" fill-rule="nonzero"/><path fill="#d3ae8b" d="M 271.679688 231.203125 C 271.679688 231.203125 270.488281 234.351562 270.5625 234.609375 C 270.625 234.863281 273.234375 236.992188 273.234375 236.992188 C 273.234375 236.992188 270.085938 235.8125 269.828125 235.878906 C 269.570312 235.949219 267.441406 238.546875 267.441406 238.546875 C 267.441406 238.546875 268.625 235.402344 268.554688 235.144531 C 268.492188 234.886719 265.886719 232.75 265.886719 232.75 C 265.886719 232.75 269.035156 233.941406 269.289062 233.878906 C 269.546875 233.808594 271.679688 231.203125 271.679688 231.203125 " fill-opacity="1" fill-rule="nonzero"/><path fill="#d3ae8b" d="M 282.253906 183.257812 C 282.253906 183.257812 282.800781 186.578125 282.988281 186.765625 C 283.179688 186.953125 286.496094 187.496094 286.496094 187.496094 C 286.496094 187.496094 283.179688 188.046875 282.992188 188.234375 C 282.800781 188.425781 282.257812 191.738281 282.257812 191.738281 C 282.257812 191.738281 281.707031 188.421875 281.519531 188.234375 C 281.335938 188.042969 278.015625 187.496094 278.015625 187.496094 C 278.015625 187.496094 281.335938 186.949219 281.523438 186.769531 C 281.710938 186.574219 282.253906 183.257812 282.253906 183.257812 " fill-opacity="1" fill-rule="nonzero"/><path fill="#d3ae8b" d="M 267.441406 136.445312 C 267.441406 136.445312 269.574219 139.050781 269.828125 139.113281 C 270.089844 139.1875 273.230469 137.992188 273.230469 137.992188 C 273.230469 137.992188 270.636719 140.128906 270.566406 140.386719 C 270.5 140.648438 271.683594 143.785156 271.683594 143.785156 C 271.683594 143.785156 269.546875 141.191406 269.289062 141.121094 C 269.035156 141.050781 265.886719 142.230469 265.886719 142.230469 C 265.886719 142.230469 268.492188 140.105469 268.5625 139.855469 C 268.628906 139.589844 267.441406 136.445312 267.441406 136.445312 " fill-opacity="1" fill-rule="nonzero"/><path fill="#d3ae8b" d="M 231.207031 103.316406 C 231.207031 103.316406 234.359375 104.5 234.609375 104.429688 C 234.871094 104.363281 236.996094 101.757812 236.996094 101.757812 C 236.996094 101.757812 235.816406 104.90625 235.882812 105.164062 C 235.957031 105.421875 238.554688 107.550781 238.554688 107.550781 C 238.554688 107.550781 235.402344 106.371094 235.144531 106.441406 C 234.890625 106.5 232.753906 109.101562 232.753906 109.101562 C 232.753906 109.101562 233.945312 105.957031 233.878906 105.707031 C 233.808594 105.445312 231.207031 103.316406 231.207031 103.316406 " fill-opacity="1" fill-rule="nonzero"/><path fill="#d3ae8b" d="M 131.898438 126.832031 L 132.089844 125.242188 C 129.835938 124.980469 127.824219 124.019531 126.210938 122.628906 L 127.109375 121.730469 L 125.976562 120.597656 L 125.078125 121.496094 C 123.683594 119.878906 122.730469 117.871094 122.464844 115.621094 L 120.875 115.804688 C 121.183594 118.429688 122.304688 120.761719 123.945312 122.628906 L 122.628906 123.945312 C 120.761719 122.308594 118.429688 121.183594 115.808594 120.875 L 115.621094 122.460938 C 117.871094 122.726562 119.882812 123.683594 121.496094 125.078125 L 120.597656 125.972656 L 121.730469 127.109375 L 122.625 126.210938 C 124.023438 127.824219 124.976562 129.832031 125.242188 132.085938 L 126.832031 131.898438 C 126.523438 129.277344 125.398438 126.941406 123.761719 125.078125 L 125.078125 123.757812 C 126.941406 125.398438 129.277344 126.523438 131.898438 126.832031 " fill-opacity="1" fill-rule="nonzero"/><path fill="#d3ae8b" d="M 102.917969 172.746094 C 102.5 172.121094 102.289062 171.769531 102.445312 171.1875 C 102.601562 170.613281 102.957031 170.410156 103.632812 170.078125 C 104.339844 169.730469 105.308594 169.257812 105.660156 167.949219 C 106.011719 166.640625 105.410156 165.742188 104.96875 165.085938 C 104.550781 164.464844 104.339844 164.117188 104.496094 163.539062 C 104.648438 162.957031 105.007812 162.761719 105.683594 162.429688 C 106.390625 162.082031 107.359375 161.605469 107.710938 160.300781 C 108.058594 158.992188 107.457031 158.097656 107.019531 157.441406 C 106.601562 156.820312 106.390625 156.46875 106.542969 155.890625 L 105 155.476562 C 104.648438 156.785156 105.25 157.679688 105.691406 158.335938 C 106.105469 158.957031 106.320312 159.308594 106.164062 159.890625 C 106.011719 160.464844 105.652344 160.660156 104.976562 160.992188 C 104.269531 161.339844 103.300781 161.8125 102.949219 163.121094 C 102.601562 164.429688 103.203125 165.324219 103.640625 165.980469 C 104.058594 166.601562 104.269531 166.953125 104.113281 167.535156 C 103.960938 168.113281 103.601562 168.316406 102.925781 168.644531 C 102.21875 168.992188 101.246094 169.46875 100.898438 170.777344 C 100.546875 172.085938 101.148438 172.980469 101.589844 173.636719 C 102.007812 174.261719 102.21875 174.617188 102.0625 175.195312 L 103.609375 175.605469 C 103.960938 174.296875 103.359375 173.402344 102.917969 172.746094 Z M 98.820312 174.324219 L 97.273438 173.910156 C 97.429688 173.332031 97.214844 172.976562 96.796875 172.351562 C 96.359375 171.699219 95.757812 170.800781 96.109375 169.492188 C 96.460938 168.183594 97.429688 167.707031 98.140625 167.359375 C 98.8125 167.03125 99.171875 166.832031 99.324219 166.25 C 99.480469 165.671875 99.269531 165.320312 98.851562 164.699219 C 98.410156 164.042969 97.808594 163.148438 98.160156 161.839844 C 98.507812 160.53125 99.480469 160.054688 100.191406 159.710938 C 100.863281 159.378906 101.222656 159.179688 101.375 158.605469 C 101.53125 158.023438 101.320312 157.675781 100.898438 157.050781 C 100.460938 156.394531 99.859375 155.5 100.210938 154.191406 L 101.753906 154.609375 C 101.601562 155.183594 101.8125 155.539062 102.226562 156.160156 C 102.667969 156.8125 103.269531 157.710938 102.921875 159.019531 C 102.570312 160.324219 101.601562 160.796875 100.894531 161.148438 C 100.21875 161.476562 99.863281 161.675781 99.707031 162.25 C 99.550781 162.832031 99.761719 163.183594 100.179688 163.808594 C 100.617188 164.460938 101.222656 165.355469 100.871094 166.664062 C 100.523438 167.972656 99.554688 168.445312 98.84375 168.792969 C 98.167969 169.125 97.808594 169.328125 97.65625 169.90625 C 97.496094 170.484375 97.710938 170.839844 98.128906 171.460938 C 98.566406 172.117188 99.171875 173.015625 98.820312 174.324219 " fill-opacity="1" fill-rule="nonzero"/><path fill="#d3ae8b" d="M 94.503906 206.539062 C 94.347656 206.539062 94.179688 206.5625 94.007812 206.613281 C 93.375 206.796875 92.621094 207.53125 92.929688 208.597656 C 93.207031 209.554688 94.105469 210.027344 95.117188 209.738281 C 95.820312 209.535156 96.292969 209.144531 96.660156 208.644531 C 96.636719 208.570312 96.609375 208.496094 96.589844 208.417969 C 96.398438 207.742188 95.660156 206.539062 94.503906 206.539062 Z M 101.519531 220.113281 C 100.964844 220.113281 100.417969 219.972656 99.917969 219.699219 C 99.144531 219.269531 98.585938 218.566406 98.34375 217.714844 C 98.011719 216.5625 98.109375 214.925781 100.457031 213.683594 C 101.722656 213.011719 103.996094 211.902344 105.988281 210.953125 C 104.78125 211.03125 103.535156 211.109375 102.570312 211.15625 C 100.289062 211.28125 98.613281 210.890625 97.601562 210.015625 C 97.101562 210.5625 96.453125 211.019531 95.558594 211.273438 C 93.699219 211.8125 91.910156 210.84375 91.394531 209.039062 C 90.84375 207.136719 92.09375 205.5 93.566406 205.074219 C 95.386719 204.550781 96.820312 205.582031 97.601562 206.820312 C 98.179688 205.492188 98.863281 204.023438 100.664062 203.507812 C 101.589844 203.238281 102.515625 203.347656 103.269531 203.8125 C 103.949219 204.234375 104.449219 204.898438 104.675781 205.695312 L 103.136719 206.136719 C 103.023438 205.730469 102.765625 205.382812 102.433594 205.175781 C 102.054688 204.945312 101.605469 204.898438 101.105469 205.042969 C 100.03125 205.355469 99.613281 206.203125 99.019531 207.566406 C 98.867188 207.917969 98.707031 208.289062 98.511719 208.65625 C 99.164062 209.359375 100.496094 209.660156 102.488281 209.554688 C 105.1875 209.421875 110.101562 209.0625 110.101562 209.0625 L 110.496094 210.585938 C 110.429688 210.621094 103.699219 213.769531 101.207031 215.09375 C 99.703125 215.894531 99.707031 216.679688 99.878906 217.277344 C 100.003906 217.714844 100.292969 218.078125 100.695312 218.300781 C 101.09375 218.519531 101.554688 218.574219 101.996094 218.449219 L 102.4375 219.984375 C 102.132812 220.070312 101.824219 220.113281 101.519531 220.113281 " fill-opacity="1" fill-rule="nonzero"/><path fill="#d3ae8b" d="M 135.308594 248.546875 L 130.152344 248.546875 L 130.152344 245.324219 L 128.550781 245.324219 L 128.550781 248.546875 L 118.367188 248.542969 L 121.015625 245.894531 L 119.886719 244.761719 L 115.304688 249.34375 L 119.890625 253.929688 L 121.019531 252.800781 L 118.367188 250.144531 L 128.550781 250.148438 L 128.550781 253.363281 L 130.152344 253.363281 L 130.152344 250.148438 L 135.308594 250.148438 L 135.308594 248.546875 " fill-opacity="1" fill-rule="nonzero"/><path fill="#d3ae8b" d="M 170.78125 281.148438 C 170.667969 281.589844 170.386719 281.949219 169.996094 282.175781 C 169.605469 282.402344 169.148438 282.460938 168.714844 282.34375 C 168.28125 282.230469 167.917969 281.949219 167.691406 281.558594 C 167.464844 281.167969 167.40625 280.710938 167.523438 280.28125 L 169.957031 271.191406 L 168.414062 270.773438 L 165.976562 279.863281 C 165.738281 280.765625 164.808594 281.296875 163.910156 281.054688 C 163.011719 280.816406 162.476562 279.890625 162.71875 278.992188 L 165.152344 269.902344 L 163.605469 269.484375 L 161.171875 278.578125 C 161.054688 279.011719 160.777344 279.375 160.386719 279.597656 C 159.996094 279.828125 159.539062 279.886719 159.101562 279.769531 C 158.667969 279.65625 158.304688 279.375 158.082031 278.984375 C 157.855469 278.59375 157.796875 278.136719 157.910156 277.707031 L 160.988281 266.222656 C 161.214844 265.375 161.101562 264.488281 160.660156 263.726562 C 160.21875 262.96875 159.511719 262.425781 158.664062 262.195312 C 157.820312 261.96875 156.925781 262.085938 156.167969 262.527344 C 155.40625 262.964844 154.863281 263.675781 154.636719 264.519531 L 154.246094 265.984375 L 153.75 265.101562 L 152.355469 265.882812 L 154.210938 269.191406 L 157.472656 267.257812 L 156.660156 265.878906 L 155.789062 266.398438 L 156.183594 264.933594 C 156.296875 264.496094 156.578125 264.136719 156.964844 263.910156 C 157.359375 263.6875 157.8125 263.625 158.25 263.746094 C 158.683594 263.859375 159.050781 264.140625 159.273438 264.527344 C 159.496094 264.921875 159.558594 265.375 159.441406 265.804688 L 156.367188 277.289062 C 156.140625 278.136719 156.253906 279.027344 156.695312 279.785156 C 157.132812 280.546875 157.839844 281.085938 158.6875 281.3125 C 158.972656 281.390625 159.261719 281.425781 159.546875 281.425781 C 160.117188 281.425781 160.679688 281.277344 161.1875 280.984375 C 161.265625 280.941406 161.3125 280.859375 161.382812 280.808594 C 161.78125 281.664062 162.523438 282.339844 163.496094 282.601562 C 163.78125 282.679688 164.0625 282.714844 164.347656 282.714844 C 165.019531 282.714844 165.65625 282.488281 166.195312 282.113281 C 166.234375 282.199219 166.261719 282.285156 166.308594 282.359375 C 166.746094 283.121094 167.453125 283.660156 168.300781 283.886719 C 168.585938 283.96875 168.871094 284.003906 169.160156 284.003906 C 169.726562 284.003906 170.289062 283.851562 170.796875 283.5625 C 171.554688 283.121094 172.097656 282.410156 172.328125 281.566406 L 170.78125 281.148438 " fill-opacity="1" fill-rule="nonzero"/><path fill="#d3ae8b" d="M 219.230469 267.5625 L 218.816406 266.019531 L 199.6875 271.144531 L 200.101562 272.6875 Z M 211.164062 280.492188 C 209.054688 280.492188 207.121094 279.082031 206.546875 276.949219 C 206.417969 276.476562 206.367188 276 206.382812 275.519531 L 201.226562 276.898438 L 200.8125 275.355469 L 208.628906 273.261719 L 208.148438 274.679688 C 207.949219 275.265625 207.929688 275.925781 208.089844 276.535156 C 208.546875 278.226562 210.300781 279.242188 211.984375 278.78125 C 212.804688 278.566406 213.488281 278.039062 213.917969 277.304688 C 214.339844 276.5625 214.453125 275.710938 214.230469 274.890625 C 214.066406 274.273438 213.726562 273.726562 213.25 273.3125 L 212.105469 272.328125 L 219.941406 270.226562 L 220.355469 271.773438 L 215.199219 273.15625 C 215.453125 273.5625 215.652344 274.003906 215.777344 274.476562 C 216.109375 275.707031 215.9375 276.992188 215.300781 278.101562 C 214.664062 279.207031 213.632812 280 212.398438 280.328125 C 211.988281 280.441406 211.574219 280.492188 211.164062 280.492188 " fill-opacity="1" fill-rule="nonzero"/><path fill="#d3ae8b" d="M 245.390625 256.765625 C 245.203125 256.949219 244.933594 257.042969 244.675781 257 C 244.375 256.957031 244.117188 256.765625 243.933594 256.433594 C 243.464844 255.589844 243.191406 254.382812 242.996094 252.898438 L 245.398438 255.300781 C 245.792969 255.707031 245.792969 256.359375 245.390625 256.765625 Z M 260.875 246.765625 L 259.742188 247.894531 C 260.429688 248.582031 260.429688 249.703125 259.742188 250.390625 C 259.410156 250.726562 258.964844 250.910156 258.492188 250.90625 C 258.023438 250.90625 257.582031 250.726562 257.25 250.390625 L 250.394531 243.539062 L 249.265625 244.671875 L 256.113281 251.523438 C 256.804688 252.210938 256.804688 253.332031 256.117188 254.015625 C 255.433594 254.699219 254.3125 254.703125 253.621094 254.015625 L 246.773438 247.164062 L 245.640625 248.292969 L 252.492188 255.148438 C 252.828125 255.484375 253.011719 255.921875 253.011719 256.394531 C 253.011719 256.867188 252.828125 257.304688 252.492188 257.640625 C 252.160156 257.976562 251.71875 258.15625 251.25 258.15625 C 250.777344 258.15625 250.332031 257.976562 250 257.640625 L 242.753906 250.390625 C 242.703125 249.683594 242.652344 248.945312 242.601562 248.164062 C 242.539062 247.1875 242.472656 246.148438 242.386719 245.050781 L 240.792969 245.171875 C 240.878906 246.265625 240.941406 247.296875 241.003906 248.265625 C 241.015625 248.410156 241.023438 248.53125 241.035156 248.671875 C 239.894531 247.535156 238.035156 247.535156 236.972656 248.597656 C 236.441406 249.128906 236.148438 249.835938 236.148438 250.589844 C 236.148438 251.34375 236.441406 252.050781 236.976562 252.585938 L 238.105469 251.453125 C 237.875 251.222656 237.746094 250.914062 237.746094 250.589844 C 237.746094 250.265625 237.875 249.960938 238.105469 249.730469 C 238.5625 249.265625 239.367188 249.265625 239.828125 249.730469 L 241.203125 251.105469 C 241.417969 253.746094 241.726562 255.761719 242.539062 257.214844 C 242.96875 257.988281 243.648438 258.472656 244.453125 258.585938 C 244.566406 258.605469 244.675781 258.609375 244.789062 258.609375 C 245.433594 258.609375 246.0625 258.351562 246.523438 257.890625 C 246.78125 257.632812 246.972656 257.332031 247.105469 257.003906 L 248.867188 258.769531 C 249.503906 259.40625 250.347656 259.753906 251.25 259.753906 C 252.148438 259.753906 252.992188 259.40625 253.625 258.773438 C 254.257812 258.136719 254.609375 257.292969 254.609375 256.394531 C 254.609375 256.296875 254.589844 256.203125 254.582031 256.105469 C 254.679688 256.113281 254.773438 256.128906 254.871094 256.128906 C 255.734375 256.128906 256.59375 255.800781 257.25 255.148438 C 257.976562 254.417969 258.285156 253.433594 258.203125 252.480469 C 258.300781 252.492188 258.390625 252.507812 258.488281 252.507812 C 259.390625 252.507812 260.238281 252.15625 260.875 251.523438 C 262.183594 250.210938 262.183594 248.082031 260.875 246.765625 " fill-opacity="1" fill-rule="nonzero"/><path fill="#d3ae8b" d="M 269.757812 204.582031 C 270.015625 203.613281 270.898438 202.9375 271.902344 202.9375 C 272.097656 202.9375 272.289062 202.960938 272.476562 203.011719 C 273.050781 203.164062 273.527344 203.535156 273.824219 204.042969 C 274.121094 204.558594 274.199219 205.15625 274.046875 205.730469 C 273.734375 206.886719 272.5 207.613281 271.328125 207.300781 C 270.144531 206.980469 269.441406 205.761719 269.757812 204.582031 Z M 281.816406 209.9375 C 281.175781 208.832031 280.148438 208.042969 278.910156 207.714844 C 277.402344 207.308594 276.152344 207.402344 274.945312 207.492188 C 275.191406 207.097656 275.453125 206.660156 275.589844 206.148438 C 275.859375 205.160156 275.722656 204.132812 275.210938 203.242188 C 274.703125 202.363281 273.875 201.730469 272.890625 201.464844 C 270.894531 200.929688 268.746094 202.179688 268.210938 204.167969 C 267.667969 206.203125 268.878906 208.296875 270.910156 208.84375 C 272.519531 209.273438 273.8125 209.179688 275.0625 209.089844 C 276.191406 209 277.253906 208.921875 278.496094 209.257812 C 279.320312 209.476562 280.003906 210.003906 280.429688 210.738281 C 280.851562 211.476562 280.96875 212.328125 280.75 213.148438 C 280.292969 214.839844 278.546875 215.855469 276.855469 215.398438 C 274.664062 214.8125 273.417969 213.683594 272.21875 212.59375 C 271.132812 211.617188 270.113281 210.691406 268.5625 210.273438 C 266.480469 209.722656 264.515625 210.773438 263.992188 212.734375 C 263.488281 214.621094 264.605469 216.574219 266.488281 217.078125 L 266.898438 215.53125 C 265.871094 215.257812 265.257812 214.1875 265.539062 213.144531 C 265.886719 211.847656 267.132812 211.554688 268.148438 211.824219 C 269.324219 212.140625 270.167969 212.902344 271.144531 213.78125 C 272.421875 214.941406 273.875 216.257812 276.4375 216.941406 C 276.851562 217.050781 277.265625 217.105469 277.675781 217.105469 C 279.78125 217.105469 281.71875 215.695312 282.292969 213.566406 C 282.621094 212.332031 282.453125 211.042969 281.816406 209.9375 " fill-opacity="1" fill-rule="nonzero"/><path fill="#d3ae8b" d="M 274.503906 168.476562 C 275.582031 168.191406 276.746094 168.863281 277.03125 169.9375 C 277.324219 171.039062 276.671875 172.175781 275.574219 172.46875 C 275.398438 172.511719 275.214844 172.539062 275.035156 172.539062 C 274.105469 172.539062 273.285156 171.90625 273.042969 171.007812 C 272.75 169.90625 273.402344 168.773438 274.503906 168.476562 Z M 265.613281 166.917969 C 266.207031 169.144531 267.597656 171.210938 269.421875 172.59375 C 271.429688 174.105469 273.855469 174.585938 275.988281 174.015625 C 277.9375 173.492188 279.101562 171.476562 278.578125 169.523438 C 278.148438 167.921875 276.691406 166.804688 275.039062 166.804688 C 274.71875 166.804688 274.398438 166.847656 274.089844 166.933594 C 272.136719 167.457031 270.976562 169.46875 271.496094 171.421875 C 271.5625 171.671875 271.660156 171.90625 271.777344 172.128906 C 271.304688 171.917969 270.839844 171.65625 270.390625 171.316406 C 268.84375 170.144531 267.664062 168.390625 267.160156 166.503906 C 266.695312 164.777344 266.707031 163.195312 267.191406 161.675781 L 265.667969 161.1875 C 265.09375 162.984375 265.074219 164.914062 265.613281 166.917969 Z M 272.421875 161.3125 C 271.339844 161.597656 270.179688 160.925781 269.890625 159.851562 C 269.597656 158.75 270.25 157.617188 271.351562 157.320312 C 271.527344 157.273438 271.707031 157.253906 271.886719 157.253906 C 272.816406 157.253906 273.640625 157.878906 273.882812 158.785156 C 274.175781 159.882812 273.519531 161.015625 272.421875 161.3125 Z M 281.3125 162.871094 C 280.714844 160.648438 279.328125 158.582031 277.5 157.195312 C 275.5 155.683594 273.070312 155.207031 270.9375 155.773438 C 268.988281 156.300781 267.824219 158.316406 268.347656 160.265625 C 268.777344 161.863281 270.230469 162.984375 271.886719 162.984375 C 272.207031 162.984375 272.523438 162.941406 272.832031 162.855469 C 274.789062 162.335938 275.949219 160.320312 275.429688 158.367188 C 275.363281 158.117188 275.265625 157.882812 275.148438 157.660156 C 275.621094 157.871094 276.085938 158.132812 276.535156 158.472656 C 278.082031 159.644531 279.261719 161.398438 279.765625 163.285156 C 280.230469 165.011719 280.214844 166.59375 279.730469 168.113281 L 281.257812 168.601562 C 281.832031 166.804688 281.847656 164.875 281.3125 162.871094 " fill-opacity="1" fill-rule="nonzero"/><path fill="#d3ae8b" d="M 248.320312 128.554688 C 247.769531 127.855469 247.140625 127.222656 246.441406 126.675781 L 252.96875 120.148438 C 253.519531 120.851562 254.148438 121.480469 254.847656 122.03125 Z M 259.246094 124.152344 L 259.613281 122.59375 C 256.011719 121.75 253.25 118.984375 252.402344 115.382812 L 250.847656 115.75 C 251.105469 116.839844 251.515625 117.863281 252.054688 118.800781 L 245.089844 125.761719 C 244.152344 125.226562 243.132812 124.808594 242.039062 124.550781 L 241.671875 126.109375 C 245.277344 126.957031 248.039062 129.722656 248.882812 133.320312 L 250.441406 132.953125 C 250.1875 131.863281 249.769531 130.839844 249.234375 129.902344 L 256.195312 122.941406 C 257.132812 123.476562 258.152344 123.894531 259.246094 124.152344 " fill-opacity="1" fill-rule="nonzero"/><path fill="#d3ae8b" d="M 214.496094 106.347656 C 213.835938 108.804688 211.199219 110.347656 208.726562 109.683594 C 206.21875 109.007812 204.722656 106.417969 205.394531 103.910156 C 205.945312 101.855469 207.816406 100.417969 209.941406 100.417969 C 210.351562 100.417969 210.761719 100.472656 211.164062 100.582031 C 213.675781 101.25 215.167969 103.839844 214.496094 106.347656 Z M 219.089844 98.386719 L 217.753906 97.503906 C 216.734375 99.066406 214.144531 99.695312 211.582031 99.015625 C 209.027344 98.332031 207.097656 96.484375 206.992188 94.621094 L 205.394531 94.710938 C 205.488281 96.371094 206.519531 97.953125 208.105469 99.105469 C 206.066406 99.730469 204.421875 101.355469 203.847656 103.496094 C 202.949219 106.859375 204.949219 110.328125 208.308594 111.230469 C 208.847656 111.371094 209.398438 111.445312 209.945312 111.445312 C 212.796875 111.445312 215.304688 109.519531 216.039062 106.765625 C 216.628906 104.570312 215.964844 102.347656 214.511719 100.804688 C 216.46875 100.605469 218.179688 99.777344 219.089844 98.386719 " fill-opacity="1" fill-rule="nonzero"/><path fill="#d3ae8b" d="M 165.597656 110.398438 L 161.296875 99.972656 C 160.917969 99.046875 160.035156 98.253906 158.949219 98.539062 C 157.941406 98.808594 157.339844 99.847656 157.609375 100.855469 L 156.0625 101.269531 C 155.570312 99.410156 156.675781 97.492188 158.53125 96.996094 C 160.273438 96.535156 162.015625 97.503906 162.777344 99.363281 L 164.765625 104.175781 C 164.492188 102.125 164.21875 100.089844 164.058594 99.035156 C 163.761719 97.074219 164.808594 95.308594 166.546875 94.847656 C 167.449219 94.605469 168.390625 94.726562 169.199219 95.199219 C 170.007812 95.664062 170.582031 96.417969 170.820312 97.320312 L 169.277344 97.726562 C 169.148438 97.242188 168.835938 96.835938 168.398438 96.582031 C 167.960938 96.332031 167.453125 96.261719 166.960938 96.394531 C 165.847656 96.691406 165.496094 97.847656 165.640625 98.796875 C 166.035156 101.402344 167.132812 109.992188 167.132812 109.992188 L 165.597656 110.398438 " fill-opacity="1" fill-rule="nonzero"/><path fill="#d3ae8b" d="M 148.664062 127.175781 C 147.707031 125.515625 148.277344 123.390625 149.9375 122.433594 C 150.210938 122.273438 150.511719 122.15625 150.816406 122.078125 C 153.257812 122.652344 154.855469 125.492188 154.203125 127.796875 C 153.96875 128.046875 153.710938 128.269531 153.410156 128.445312 C 151.796875 129.375 149.585938 128.769531 148.664062 127.175781 Z M 155.601562 123.167969 C 154.792969 121.769531 153.285156 120.902344 151.664062 120.902344 C 150.875 120.902344 150.089844 121.113281 149.402344 121.511719 C 147.234375 122.761719 146.488281 125.542969 147.742188 127.707031 C 148.550781 129.105469 150.058594 129.980469 151.675781 129.980469 C 152.464844 129.980469 153.25 129.765625 153.941406 129.371094 C 154.992188 128.765625 155.742188 127.785156 156.054688 126.617188 C 156.367188 125.445312 156.207031 124.222656 155.601562 123.167969 " fill-opacity="1" fill-rule="nonzero"/><path fill="#d3ae8b" d="M 123.707031 154.671875 C 122.902344 154.210938 122.324219 153.460938 122.085938 152.5625 C 121.847656 151.667969 121.96875 150.734375 122.433594 149.929688 C 122.511719 149.792969 122.617188 149.6875 122.714844 149.5625 C 124.660156 149.535156 127.496094 151.226562 128.597656 153.078125 C 128.546875 153.1875 128.511719 153.296875 128.449219 153.402344 C 127.527344 154.996094 125.316406 155.601562 123.707031 154.671875 Z M 127.707031 147.738281 C 127.019531 147.339844 126.234375 147.128906 125.445312 147.128906 C 123.824219 147.128906 122.316406 148 121.507812 149.398438 C 120.902344 150.449219 120.742188 151.671875 121.054688 152.84375 C 121.371094 154.015625 122.125 154.992188 123.171875 155.597656 C 123.863281 155.996094 124.644531 156.207031 125.4375 156.207031 C 127.058594 156.207031 128.566406 155.335938 129.371094 153.933594 C 130.621094 151.769531 129.875 148.988281 127.707031 147.738281 " fill-opacity="1" fill-rule="nonzero"/><path fill="#d3ae8b" d="M 115.839844 190.96875 C 113.925781 190.96875 112.371094 189.410156 112.371094 187.496094 L 119.316406 187.496094 C 119.316406 189.410156 117.757812 190.96875 115.839844 190.96875 Z M 115.839844 182.957031 C 113.339844 182.957031 111.304688 184.996094 111.304688 187.496094 C 111.304688 190 113.339844 192.035156 115.839844 192.035156 C 118.34375 192.035156 120.378906 190 120.378906 187.496094 C 120.378906 184.996094 118.34375 182.957031 115.839844 182.957031 " fill-opacity="1" fill-rule="nonzero"/><path fill="#d3ae8b" d="M 127.175781 226.332031 C 125.679688 227.195312 123.671875 226.722656 122.660156 225.367188 C 124.863281 225.382812 127.550781 223.75 128.601562 221.929688 C 129.308594 223.527344 128.722656 225.4375 127.175781 226.332031 Z M 129.371094 221.054688 C 128.566406 219.65625 127.054688 218.785156 125.4375 218.785156 C 124.644531 218.785156 123.859375 218.996094 123.171875 219.394531 C 121.003906 220.644531 120.257812 223.425781 121.511719 225.59375 C 122.320312 226.996094 123.828125 227.867188 125.445312 227.867188 C 126.238281 227.867188 127.023438 227.65625 127.710938 227.253906 C 129.878906 226.003906 130.621094 223.21875 129.371094 221.054688 " fill-opacity="1" fill-rule="nonzero"/><path fill="#d3ae8b" d="M 154.675781 251.292969 C 153.867188 252.683594 152.082031 253.320312 150.566406 252.839844 C 153.191406 252.144531 154.691406 249.367188 154.089844 247.082031 C 155.195312 248.164062 155.484375 249.890625 154.675781 251.292969 Z M 153.941406 245.621094 C 153.246094 245.226562 152.464844 245.015625 151.671875 245.015625 C 150.054688 245.015625 148.546875 245.882812 147.738281 247.285156 C 146.488281 249.457031 147.234375 252.234375 149.398438 253.484375 C 150.089844 253.886719 150.875 254.09375 151.664062 254.09375 C 153.28125 254.09375 154.789062 253.226562 155.597656 251.824219 C 156.851562 249.65625 156.105469 246.878906 153.941406 245.621094 " fill-opacity="1" fill-rule="nonzero"/><path fill="#d3ae8b" d="M 187.496094 254.613281 C 184.996094 254.613281 182.960938 256.648438 182.960938 259.152344 C 182.960938 261.65625 184.996094 263.691406 187.496094 263.691406 C 190 263.691406 192.035156 261.65625 192.035156 259.152344 C 192.035156 256.648438 190 254.613281 187.496094 254.613281 " fill-opacity="1" fill-rule="nonzero"/><path fill="#d3ae8b" d="M 220.320312 251.289062 C 219.855469 250.484375 219.734375 249.550781 219.972656 248.65625 C 220.136719 248.042969 220.464844 247.511719 220.90625 247.082031 C 220.304688 249.355469 221.792969 252.125 224.402344 252.835938 C 224.054688 252.945312 223.699219 253.027344 223.332031 253.027344 C 222.09375 253.027344 220.9375 252.359375 220.320312 251.289062 Z M 227.257812 247.285156 C 226.449219 245.882812 224.941406 245.015625 223.324219 245.015625 C 222.53125 245.015625 221.75 245.222656 221.054688 245.621094 C 220.007812 246.230469 219.253906 247.207031 218.941406 248.378906 C 218.628906 249.550781 218.789062 250.773438 219.394531 251.824219 C 220.203125 253.222656 221.710938 254.09375 223.332031 254.09375 C 224.121094 254.09375 224.90625 253.882812 225.59375 253.484375 C 226.644531 252.875 227.398438 251.902344 227.710938 250.726562 C 228.023438 249.554688 227.863281 248.335938 227.257812 247.285156 " fill-opacity="1" fill-rule="nonzero"/><path fill="#d3ae8b" d="M 247.820312 226.332031 C 246.273438 225.4375 245.691406 223.527344 246.394531 221.929688 C 247.449219 223.75 250.132812 225.386719 252.339844 225.367188 C 251.324219 226.722656 249.316406 227.195312 247.820312 226.332031 Z M 251.824219 219.394531 C 251.136719 218.996094 250.351562 218.785156 249.558594 218.785156 C 247.941406 218.785156 246.433594 219.65625 245.625 221.054688 C 244.375 223.21875 245.121094 226.003906 247.285156 227.253906 C 247.976562 227.65625 248.757812 227.867188 249.550781 227.867188 C 251.167969 227.867188 252.675781 226.996094 253.484375 225.59375 C 254.738281 223.425781 253.992188 220.644531 251.824219 219.394531 " fill-opacity="1" fill-rule="nonzero"/><path fill="#d3ae8b" d="M 259.15625 190.96875 C 257.242188 190.96875 255.683594 189.410156 255.683594 187.496094 L 262.625 187.496094 C 262.625 189.410156 261.070312 190.96875 259.15625 190.96875 Z M 259.15625 182.957031 C 256.652344 182.957031 254.617188 184.996094 254.617188 187.496094 C 254.617188 190 256.652344 192.035156 259.15625 192.035156 C 261.65625 192.035156 263.695312 190 263.695312 187.496094 C 263.695312 184.996094 261.65625 182.957031 259.15625 182.957031 " fill-opacity="1" fill-rule="nonzero"/><path fill="#d3ae8b" d="M 252.910156 152.5625 C 252.667969 153.460938 252.09375 154.210938 251.289062 154.671875 C 249.683594 155.601562 247.46875 154.996094 246.546875 153.402344 C 246.488281 153.296875 246.449219 153.183594 246.398438 153.078125 C 247.496094 151.226562 250.335938 149.535156 252.28125 149.5625 C 252.375 149.6875 252.484375 149.792969 252.5625 149.929688 C 253.027344 150.734375 253.148438 151.667969 252.910156 152.5625 Z M 253.484375 149.398438 C 252.675781 148 251.171875 147.128906 249.550781 147.128906 C 248.761719 147.128906 247.976562 147.339844 247.285156 147.738281 C 245.121094 148.988281 244.375 151.769531 245.621094 153.933594 C 246.429688 155.335938 247.9375 156.207031 249.558594 156.207031 C 250.351562 156.207031 251.132812 155.996094 251.824219 155.597656 C 252.871094 154.992188 253.625 154.015625 253.941406 152.84375 C 254.253906 151.671875 254.09375 150.449219 253.484375 149.398438 " fill-opacity="1" fill-rule="nonzero"/><path fill="#d3ae8b" d="M 226.332031 127.175781 C 225.714844 128.246094 224.5625 128.914062 223.324219 128.914062 C 222.71875 128.914062 222.121094 128.75 221.589844 128.445312 C 221.28125 128.265625 221.027344 128.039062 220.796875 127.792969 C 220.148438 125.488281 221.738281 122.652344 224.179688 122.082031 C 224.484375 122.15625 224.785156 122.273438 225.0625 122.433594 C 225.867188 122.898438 226.441406 123.644531 226.683594 124.539062 C 226.921875 125.4375 226.796875 126.371094 226.332031 127.175781 Z M 227.710938 124.265625 C 227.398438 123.09375 226.644531 122.117188 225.59375 121.511719 C 224.90625 121.113281 224.121094 120.902344 223.332031 120.902344 C 221.710938 120.902344 220.207031 121.769531 219.394531 123.167969 C 218.144531 125.339844 218.890625 128.121094 221.058594 129.371094 C 221.75 129.765625 222.53125 129.980469 223.324219 129.980469 C 224.941406 129.980469 226.449219 129.105469 227.257812 127.707031 C 227.863281 126.65625 228.023438 125.4375 227.710938 124.265625 " fill-opacity="1" fill-rule="nonzero"/><path fill="#d3ae8b" d="M 187.496094 112.367188 C 185.585938 112.367188 184.023438 113.925781 184.023438 115.839844 C 184.023438 117.757812 185.585938 119.3125 187.496094 119.3125 C 189.410156 119.3125 190.96875 117.757812 190.96875 115.839844 C 190.96875 113.925781 189.410156 112.367188 187.496094 112.367188 Z M 187.496094 120.378906 C 184.996094 120.378906 182.960938 118.339844 182.960938 115.839844 C 182.960938 113.335938 184.996094 111.304688 187.496094 111.304688 C 190 111.304688 192.035156 113.335938 192.035156 115.839844 C 192.035156 118.339844 190 120.378906 187.496094 120.378906 " fill-opacity="1" fill-rule="nonzero"/><g clip-path="url(#b21e69b502)"><path fill="#d3ae8b" d="M 300.496094 216.941406 L 291.441406 215.351562 L 300.082031 218.496094 L 261.40625 228.859375 L 255.179688 205.632812 L 272.183594 188.628906 Z M 274.957031 237.992188 C 272.582031 242.105469 269.902344 246.046875 267.003906 249.757812 L 261.820312 230.40625 L 281.167969 225.222656 C 279.410156 229.578125 277.335938 233.871094 274.957031 237.992188 Z M 270.636719 269.496094 L 263.589844 263.589844 L 269.5 270.632812 L 230.820312 260.269531 L 237.046875 237.042969 L 260.273438 230.820312 Z M 237.988281 274.960938 C 233.878906 277.332031 229.585938 279.40625 225.222656 281.171875 L 230.410156 261.816406 L 249.757812 267.003906 C 246.054688 269.898438 242.109375 272.578125 237.988281 274.960938 Z M 218.496094 300.078125 L 215.34375 291.441406 L 216.941406 300.496094 L 188.628906 272.179688 L 205.632812 255.175781 L 228.859375 261.402344 Z M 173.328125 287.480469 L 187.496094 273.3125 L 201.664062 287.476562 C 192.34375 288.785156 182.636719 288.785156 173.328125 287.480469 Z M 158.050781 300.496094 L 159.640625 291.4375 L 156.5 300.078125 L 146.132812 261.402344 L 169.363281 255.175781 L 186.367188 272.179688 Z M 136.996094 274.957031 C 132.878906 272.578125 128.9375 269.898438 125.230469 267.003906 L 144.585938 261.816406 L 149.773438 281.171875 C 145.410156 279.40625 141.113281 277.332031 136.996094 274.957031 Z M 105.496094 270.636719 L 111.402344 263.585938 L 104.359375 269.496094 L 114.722656 230.820312 L 137.949219 237.042969 L 144.175781 260.269531 Z M 100.027344 237.988281 C 97.660156 233.878906 95.585938 229.585938 93.816406 225.21875 L 113.175781 230.40625 L 107.992188 249.757812 C 105.097656 246.054688 102.414062 242.113281 100.027344 237.988281 Z M 74.910156 218.496094 L 83.550781 215.34375 L 74.496094 216.941406 L 102.808594 188.628906 L 119.816406 205.632812 L 113.589844 228.859375 Z M 101.679688 187.496094 L 87.507812 201.667969 C 86.855469 197.015625 86.503906 192.257812 86.503906 187.492188 C 86.503906 182.75 86.855469 177.996094 87.507812 173.324219 Z M 74.496094 158.046875 L 83.554688 159.640625 L 74.914062 156.496094 L 113.589844 146.132812 L 119.816406 169.359375 L 102.808594 186.363281 Z M 100.035156 136.996094 C 102.402344 132.898438 105.082031 128.953125 107.988281 125.226562 L 113.175781 144.585938 L 93.816406 149.777344 C 95.585938 145.40625 97.660156 141.109375 100.035156 136.996094 Z M 104.359375 105.492188 L 111.40625 111.402344 L 105.496094 104.359375 L 144.175781 114.722656 L 137.949219 137.949219 L 114.722656 144.171875 Z M 137 100.027344 C 141.109375 97.660156 145.402344 95.585938 149.773438 93.816406 L 144.585938 113.175781 L 125.230469 107.988281 C 128.949219 105.085938 132.894531 102.402344 137 100.027344 Z M 156.5 74.910156 L 159.648438 83.546875 L 158.050781 74.496094 L 186.367188 102.808594 L 169.363281 119.816406 L 146.132812 113.589844 Z M 201.667969 87.507812 L 187.496094 101.679688 L 173.324219 87.507812 C 182.667969 86.199219 192.316406 86.199219 201.667969 87.507812 Z M 216.945312 74.496094 L 215.351562 83.550781 L 218.496094 74.910156 L 228.859375 113.589844 L 205.632812 119.816406 L 188.628906 102.808594 Z M 238 100.035156 C 242.089844 102.394531 246.03125 105.074219 249.769531 107.988281 L 230.410156 113.175781 L 225.222656 93.820312 C 229.597656 95.589844 233.890625 97.664062 238 100.035156 Z M 269.496094 104.359375 L 263.59375 111.402344 L 270.636719 105.492188 L 260.273438 144.171875 L 237.046875 137.949219 L 230.820312 114.722656 Z M 274.964844 137.003906 C 277.332031 141.105469 279.40625 145.398438 281.179688 149.777344 L 261.820312 144.585938 L 267.003906 125.234375 C 269.90625 128.945312 272.589844 132.886719 274.964844 137.003906 Z M 250.320312 187.496094 L 254.703125 171.144531 L 271.054688 187.496094 L 254.703125 203.847656 Z M 241.90625 218.90625 L 253.871094 206.9375 L 259.859375 229.273438 L 237.523438 235.257812 Z M 221.171875 239.640625 L 239.640625 221.171875 L 235.738281 235.738281 Z M 218.90625 241.90625 L 235.261719 237.523438 L 229.273438 259.859375 L 206.941406 253.871094 Z M 190.589844 249.488281 L 215.816406 242.730469 L 205.15625 253.394531 Z M 187.496094 250.316406 L 203.847656 254.699219 L 187.496094 271.050781 L 171.144531 254.699219 Z M 159.179688 242.730469 L 184.40625 249.488281 L 169.839844 253.394531 Z M 156.089844 241.90625 L 168.054688 253.871094 L 145.71875 259.859375 L 139.734375 237.523438 Z M 135.351562 221.171875 L 153.824219 239.640625 L 139.257812 235.738281 Z M 121.121094 206.9375 L 133.089844 218.90625 L 137.472656 235.257812 L 115.136719 229.273438 Z M 124.675781 187.496094 L 120.292969 203.847656 L 103.941406 187.496094 L 120.292969 171.144531 Z M 133.089844 156.085938 L 121.121094 168.054688 L 115.136719 145.71875 L 137.472656 139.730469 Z M 153.824219 135.351562 L 135.351562 153.820312 L 139.257812 139.257812 Z M 156.089844 133.089844 L 139.734375 137.46875 L 145.71875 115.136719 L 168.054688 121.121094 Z M 184.40625 125.503906 L 159.179688 132.261719 L 169.839844 121.597656 Z M 187.496094 124.675781 L 171.144531 120.292969 L 187.496094 103.941406 L 203.847656 120.292969 Z M 215.816406 132.261719 L 190.589844 125.503906 L 205.15625 121.597656 Z M 218.90625 133.089844 L 206.941406 121.121094 L 229.273438 115.136719 L 235.261719 137.46875 Z M 239.640625 153.820312 L 221.171875 135.351562 L 235.738281 139.257812 Z M 241.90625 156.085938 L 237.523438 139.730469 L 259.859375 145.71875 L 253.871094 168.054688 Z M 242.734375 159.175781 L 253.394531 169.839844 L 249.492188 184.40625 Z M 249.492188 190.589844 L 253.394531 205.152344 L 242.734375 215.816406 Z M 126.332031 187.496094 L 134.527344 156.914062 L 156.914062 134.523438 L 187.496094 126.328125 L 218.082031 134.523438 L 240.46875 156.914062 L 248.664062 187.496094 L 240.46875 218.078125 L 218.082031 240.464844 L 187.496094 248.664062 L 156.914062 240.464844 L 134.527344 218.078125 Z M 121.601562 169.839844 L 132.261719 159.175781 L 125.503906 184.40625 Z M 132.261719 215.816406 L 121.601562 205.152344 L 125.503906 190.589844 Z M 288.492188 187.5 C 288.488281 192.242188 288.140625 197 287.488281 201.667969 L 273.316406 187.496094 L 287.484375 173.328125 C 288.136719 177.980469 288.488281 182.734375 288.492188 187.5 Z M 300.078125 156.496094 L 291.445312 159.648438 L 300.5 158.050781 L 272.183594 186.363281 L 255.179688 169.359375 L 261.40625 146.132812 Z M 290.089844 187.5 C 290.089844 182.253906 289.683594 177.011719 288.902344 171.910156 L 304.726562 156.082031 L 283.121094 150.296875 C 281.230469 145.460938 278.957031 140.722656 276.351562 136.203125 C 273.734375 131.671875 270.761719 127.335938 267.523438 123.292969 L 273.316406 101.679688 L 251.707031 107.46875 C 247.636719 104.214844 243.300781 101.246094 238.800781 98.648438 C 234.28125 96.039062 229.535156 93.769531 224.703125 91.882812 L 218.910156 70.265625 L 203.089844 86.085938 C 192.824219 84.523438 182.164062 84.523438 171.90625 86.085938 L 156.085938 70.265625 L 150.296875 91.875 C 145.464844 93.757812 140.726562 96.03125 136.199219 98.644531 C 131.675781 101.253906 127.335938 104.226562 123.289062 107.46875 L 101.679688 101.679688 L 107.46875 123.285156 C 104.222656 127.347656 101.253906 131.679688 98.648438 136.195312 C 96.035156 140.726562 93.761719 145.46875 91.875 150.296875 L 70.265625 156.082031 L 86.085938 171.902344 C 85.308594 177.03125 84.902344 182.269531 84.902344 187.492188 C 84.902344 192.738281 85.308594 197.984375 86.085938 203.089844 L 70.265625 218.90625 L 91.878906 224.699219 C 93.761719 229.519531 96.03125 234.257812 98.644531 238.789062 C 101.269531 243.332031 104.242188 247.667969 107.46875 251.699219 L 101.679688 273.3125 L 123.289062 267.523438 C 127.324219 270.753906 131.664062 273.722656 136.195312 276.339844 C 140.730469 278.960938 145.472656 281.226562 150.292969 283.109375 L 156.085938 304.726562 L 171.90625 288.902344 C 177.011719 289.683594 182.253906 290.085938 187.492188 290.085938 C 192.730469 290.085938 197.972656 289.683594 203.085938 288.902344 L 218.910156 304.726562 L 224.699219 283.113281 C 229.523438 281.226562 234.261719 278.960938 238.789062 276.34375 C 243.328125 273.722656 247.667969 270.753906 251.699219 267.523438 L 273.316406 273.3125 L 267.523438 251.699219 C 270.757812 247.660156 273.726562 243.324219 276.34375 238.796875 C 278.964844 234.25 281.234375 229.511719 283.109375 224.699219 L 304.726562 218.90625 L 288.910156 203.089844 C 289.6875 197.964844 290.089844 192.722656 290.089844 187.5 " fill-opacity="1" fill-rule="nonzero"/></g></svg>